sfk_cyclingleg_states
version=1
nRows=9
nColumns=53
inDegrees=yes

# SIMM Motion File Header:
name sfk_cyclingleg_states
datacolumns 53
datarows 9
otherdata 1
range 0.84847618 0.85020230
endheader
time	/jointset/bb/crank_angle/value	/jointset/bb/crank_angle/speed	/jointset/spindle/pedal_angle_r/value	/jointset/spindle/pedal_angle_r/speed	/jointset/ground_pelvis/pelvis_tilt/value	/jointset/ground_pelvis/pelvis_tilt/speed	/jointset/ground_pelvis/pelvis_list/value	/jointset/ground_pelvis/pelvis_list/speed	/jointset/ground_pelvis/pelvis_rotation/value	/jointset/ground_pelvis/pelvis_rotation/speed	/jointset/ground_pelvis/pelvis_tx/value	/jointset/ground_pelvis/pelvis_tx/speed	/jointset/ground_pelvis/pelvis_ty/value	/jointset/ground_pelvis/pelvis_ty/speed	/jointset/ground_pelvis/pelvis_tz/value	/jointset/ground_pelvis/pelvis_tz/speed	/jointset/hip_r/hip_angle_r/value	/jointset/hip_r/hip_angle_r/speed	/jointset/hip_r/hip_adduction_r/value	/jointset/hip_r/hip_adduction_r/speed	/jointset/hip_r/hip_rotation_r/value	/jointset/hip_r/hip_rotation_r/speed	/jointset/knee_r/knee_angle_r/value	/jointset/knee_r/knee_angle_r/speed	/jointset/knee_r/tib_tx_r/value	/jointset/knee_r/tib_tx_r/speed	/jointset/knee_r/tib_ty_r/value	/jointset/knee_r/tib_ty_r/speed	/jointset/tib_pat_r/pat_angle_r/value	/jointset/tib_pat_r/pat_angle_r/speed	/jointset/tib_pat_r/pat_tx_r/value	/jointset/tib_pat_r/pat_tx_r/speed	/jointset/tib_pat_r/pat_ty_r/value	/jointset/tib_pat_r/pat_ty_r/speed	/jointset/ankle_r/ankle_angle_r/value	/jointset/ankle_r/ankle_angle_r/speed	/jointset/subtalar_r/subtalar_angle_r/value	/jointset/subtalar_r/subtalar_angle_r/speed	/jointset/mtp_r/mtp_angle_r/value	/jointset/mtp_r/mtp_angle_r/speed	/forceset/bifemlh_r/activation	/forceset/bifemlh_r/fiber_length	/forceset/bifemsh_r/activation	/forceset/bifemsh_r/fiber_length	/forceset/glut_max2_r/activation	/forceset/glut_max2_r/fiber_length	/forceset/vas_int_r/activation	/forceset/vas_int_r/fiber_length	/forceset/med_gas_r/activation	/forceset/med_gas_r/fiber_length	/forceset/tib_ant_r/activation	/forceset/tib_ant_r/fiber_length
      0.84847618	   -417.52107003	   -480.13863232	    422.41097000	    576.09900018	      0.00000000	      0.00000000	     -0.00000000	     -0.00000000	     -0.00000000	     -0.00000000	      0.00000000	      0.00000000	      0.00000000	      0.00000000	      0.00000000	      0.00000000	     75.66063333	   -141.20624628	      4.27338052	      1.84761212	     -1.82473883	     21.55736533	    -93.24104257	    269.61290879	      0.00334876	      0.04284945	     -0.48706041	      0.09351744	     17.57863901	     -1.05203178	      0.03150096	      0.10634972	     -0.02283018	      0.01183306	     23.00620442	    -33.87382174	     -0.00000000	     -0.00000000	      0.00000000	      0.00000000	     -0.08379919	      0.13824447	     -0.08379919	      0.15044008	     -0.08379919	      0.15300061	     -0.08379919	      0.15005316	     -0.08379919	      0.13473221	     -0.08379919	      0.11564672
      0.84884078	   -417.69613076	   -480.13863232	    422.62100246	    576.01207552	      0.00000000	      0.00000000	     -0.00000000	     -0.00000000	     -0.00000000	     -0.00000000	      0.00000000	      0.00000000	      0.00000000	      0.00000000	      0.00000000	      0.00000000	     75.60906024	   -141.69228403	      4.27405352	      1.84404231	     -1.81687761	     21.56451772	    -93.14269218	    269.87758351	      0.00336435	      0.04269379	     -0.48702630	      0.09361233	     17.57825582	     -1.04987847	      0.03153974	      0.10635340	     -0.02282588	      0.01178869	     22.99387874	    -33.73738853	     -0.00000000	     -0.00000000	      0.00000000	      0.00000000	     -0.08384613	      0.13823244	     -0.08384613	      0.15047446	     -0.08384613	      0.15297753	     -0.08384613	      0.15000032	     -0.08384613	      0.13483886	     -0.08384613	      0.11565766
      0.84889174	   -417.72059664	   -480.13863232	    422.65035335	    575.99996122	      0.00000000	      0.00000000	     -0.00000000	     -0.00000000	     -0.00000000	     -0.00000000	      0.00000000	      0.00000000	      0.00000000	      0.00000000	      0.00000000	      0.00000000	     75.60183846	   -141.76009908	      4.27414747	      1.84354109	     -1.81577874	     21.56551327	    -93.12893939	    269.91446885	      0.00336653	      0.04267198	     -0.48702153	      0.09362554	     17.57820233	     -1.04957138	      0.03154516	      0.10635385	     -0.02282528	      0.01178246	     22.99216010	    -33.71829359	     -0.00000000	     -0.00000000	      0.00000000	      0.00000000	     -0.08385269	      0.13823076	     -0.08385269	      0.15047928	     -0.08385269	      0.15297430	     -0.08385269	      0.14999293	     -0.08385269	      0.13481454	     -0.08385269	      0.11565919
      0.84902500	   -417.78457846	   -480.13863232	    422.72710725	    575.96831995	      0.00000000	      0.00000000	     -0.00000000	     -0.00000000	     -0.00000000	     -0.00000000	      0.00000000	      0.00000000	      0.00000000	      0.00000000	      0.00000000	      0.00000000	     75.58293613	   -141.93731545	      4.27439305	      1.84222767	     -1.81290482	     21.56811214	    -93.09296499	    270.01080808	      0.00337221	      0.04261490	     -0.48700905	      0.09366002	     17.57806252	     -1.04876112	      0.03155933	      0.10635499	     -0.02282371	      0.01176614	     22.98767023	    -33.66832580	     -0.00000000	     -0.00000000	      0.00000000	      0.00000000	     -0.08386985	      0.13822634	     -0.08386985	      0.15049188	     -0.08386985	      0.15296583	     -0.08386985	      0.14997359	     -0.08386985	      0.13480580	     -0.08386985	      0.11566317
      0.84938608	   -417.95794863	   -480.13863232	    422.93506450	    575.88286861	      0.00000000	      0.00000000	     -0.00000000	     -0.00000000	     -0.00000000	     -0.00000000	      0.00000000	      0.00000000	      0.00000000	      0.00000000	      0.00000000	      0.00000000	     75.53159833	   -142.41657128	      4.27505760	      1.83864933	     -1.80511566	     21.57512069	    -92.99542152	    270.27097538	      0.00338757	      0.04245982	     -0.48697521	      0.09375301	     17.57768423	     -1.04651348	      0.03159773	      0.10635760	     -0.02281947	      0.01172168	     22.97553763	    -33.53269911	     -0.00000000	     -0.00000000	      0.00000000	      0.00000000	     -0.08391634	      0.13821435	     -0.08391634	      0.15052612	     -0.08391634	      0.15294282	     -0.08391634	      0.14992112	     -0.08391634	      0.13480846	     -0.08391634	      0.11567394
      0.84953171	   -418.02787423	   -480.13863232	    423.01893143	    575.84852175	      0.00000000	      0.00000000	     -0.00000000	     -0.00000000	     -0.00000000	     -0.00000000	      0.00000000	      0.00000000	      0.00000000	      0.00000000	      0.00000000	      0.00000000	     75.51084326	   -142.60947997	      4.27532527	      1.83719809	     -1.80197333	     21.57793371	    -92.95605264	    270.37554508	      0.00339375	      0.04239709	     -0.48696156	      0.09379033	     17.57753189	     -1.04558534	      0.03161322	      0.10635846	     -0.02281776	      0.01170366	     22.97065804	    -33.47790195	     -0.00000000	     -0.00000000	      0.00000000	      0.00000000	     -0.08393509	      0.13820950	     -0.08393509	      0.15053997	     -0.08393509	      0.15293350	     -0.08393509	      0.14989993	     -0.08393509	      0.13481486	     -0.08393509	      0.11567827
      0.84979218	   -418.15293135	   -480.13863232	    423.16890921	    575.78726432	      0.00000000	      0.00000000	     -0.00000000	     -0.00000000	     -0.00000000	     -0.00000000	      0.00000000	      0.00000000	      0.00000000	      0.00000000	      0.00000000	      0.00000000	     75.47365426	   -142.95392467	      4.27580345	      1.83459122	     -1.79635248	     21.58294512	    -92.88560621	    270.56203982	      0.00340478	      0.04228468	     -0.48693712	      0.09385682	     17.57725978	     -1.04389440	      0.03164093	      0.10635973	     -0.02281472	      0.01167128	     22.96195115	    -33.37976603	     -0.00000000	     -0.00000000	      0.00000000	      0.00000000	     -0.08396862	      0.13820080	     -0.08396862	      0.15056477	     -0.08396862	      0.15291681	     -0.08396862	      0.14986200	     -0.08396862	      0.13483326	     -0.08396862	      0.11568600
      0.85014989	   -418.32468382	   -480.13863232	    423.37486157	    575.70348815	      0.00000000	      0.00000000	     -0.00000000	     -0.00000000	     -0.00000000	     -0.00000000	      0.00000000	      0.00000000	      0.00000000	      0.00000000	      0.00000000	      0.00000000	     75.42243315	   -143.42581306	      4.27645907	      1.83098717	     -1.78863073	     21.58978743	    -92.78877664	    270.81708231	      0.00341987	      0.04212977	     -0.48690353	      0.09394758	     17.57688679	     -1.04150701	      0.03167897	      0.10636090	     -0.02281055	      0.01162653	     22.95003488	    -33.24470628	     -0.00000000	     -0.00000000	      0.00000000	      0.00000000	     -0.08401468	      0.13818881	     -0.08401468	      0.15059895	     -0.08401468	      0.15289378	     -0.08401468	      0.14980983	     -0.08401468	      0.13494023	     -0.08401468	      0.11569657
      0.85020230	   -418.34984903	   -480.13863232	    423.40503524	    575.69124768	      0.00000000	      0.00000000	     -0.00000000	     -0.00000000	     -0.00000000	     -0.00000000	      0.00000000	      0.00000000	      0.00000000	      0.00000000	      0.00000000	      0.00000000	     75.41491406	   -143.49484058	      4.27655502	      1.83045680	     -1.78749913	     21.59078609	    -92.77458149	    270.85434554	      0.00342208	      0.04210703	     -0.48689861	      0.09396082	     17.57683221	     -1.04115087	      0.03168455	      0.10636102	     -0.02280994	      0.01161995	     22.94829296	    -33.22489015	     -0.00000000	     -0.00000000	      0.00000000	      0.00000000	     -0.08402143	      0.13818705	     -0.08402143	      0.15060396	     -0.08402143	      0.15289040	     -0.08402143	      0.14980217	     -0.08402143	      0.13491511	     -0.08402143	      0.11569812
